<svg width="687" height="373" viewBox="0 0 687 373" fill="none" xmlns="http://www.w3.org/2000/svg">
<g id="LOGO_LOHA_FINAL[1] 2 (Traced)">
<path fill-rule="evenodd" clip-rule="evenodd" d="M398.261 64.0226C371.355 68.4916 338.173 89.4556 311.414 118.895C301.114 130.225 287.37 147.643 279.449 159.404C275.875 164.709 274.83 165.565 270.525 166.716C257.772 170.123 245.144 179.534 245.152 185.623C245.157 189.258 248.397 194.468 252.025 196.674L254.921 198.435L243.919 217.915C229.731 243.035 215.148 272.108 215.148 275.275C215.148 276.637 215.855 278.459 216.719 279.324C219.475 282.079 222.646 281.207 226.463 276.645C231.718 270.363 246.473 255.333 256.019 246.537C263.671 239.486 276.05 229.895 277.499 229.895C277.827 229.895 275.661 233.47 272.686 237.839C265.288 248.704 260.119 259.781 259.458 266.185C258.971 270.895 259.207 271.812 261.65 274.714C267.669 281.868 274.944 282.569 285.813 277.043C292.567 273.609 303.728 265.87 309.995 260.275L314.341 256.395L311.799 253.652L309.257 250.909L300.952 256.862C291.525 263.619 284.21 267.552 279.245 268.534L275.843 269.206L276.402 265.039C277.161 259.378 284.567 244.485 292.557 232.553C296.182 227.14 299.148 221.706 299.148 220.477C299.148 217.502 295.164 213.895 291.879 213.895C284.05 213.895 269.532 221.917 254.648 234.468C250.248 238.178 245.79 241.929 244.74 242.804C242.518 244.657 246.292 237.638 259.614 215.135L268.648 199.876L285.648 199.398C329.714 198.159 369.597 189.227 413.591 170.743C437.868 160.544 447.482 154.638 457.851 143.553C476.38 123.746 476.652 98.4596 458.531 80.2656C451.276 72.9806 439.308 66.6246 428.648 64.3936C420.99 62.7916 406.725 62.6176 398.261 64.0226ZM453.024 87.9816C447.865 82.7656 438.515 77.0966 431.22 74.7616C424.782 72.7006 407.139 71.3866 401.148 72.5216C389.416 74.7446 370.268 83.9806 355.203 94.6846C344.386 102.37 324.217 121.425 313.7 133.895C296.295 154.533 273.94 187.476 276.273 189.05C278.003 190.217 299.79 189.219 315.148 187.269C378.36 179.244 444.892 147.45 457.955 119.027C462.865 108.344 460.895 95.9396 453.024 87.9816ZM258.58 187.895C260.934 187.895 263.241 185.499 266.041 180.145C267.647 177.076 267.116 177.272 261.238 181.918C255.607 186.369 254.928 187.895 258.58 187.895Z" fill="#ED3237"/>
<path fill-rule="evenodd" clip-rule="evenodd" d="M186.469 211.841C184.72 212.907 180.445 214.088 176.969 214.464C173.492 214.84 169.861 215.836 168.898 216.677C166.535 218.74 166.691 222.391 169.243 224.769L171.338 226.72L164.269 236.558C150.941 255.105 145.215 269.619 148.505 276.517C150.714 281.15 155.273 283.277 161.432 282.548C172.744 281.208 192.759 268.531 208.148 252.957C217.261 243.735 221.297 237.38 223.495 228.79C224.806 223.666 225.063 223.364 228.616 222.785C232.496 222.153 234.331 220.459 233.888 217.92C233.375 214.984 228.877 213.925 216.858 213.91C207.061 213.897 204.406 213.557 201.148 211.895C196.195 209.368 190.558 209.347 186.469 211.841ZM209.733 229.218C210.252 226.624 209.998 226.087 207.995 225.551C204.713 224.672 198.335 224.919 193.9 226.097C186.769 227.991 170.755 247.987 162.577 265.207C160.549 269.477 159.144 273.224 159.454 273.535C159.765 273.845 162.232 273.363 164.938 272.465C181.082 267.103 207.199 241.888 209.733 229.218Z" fill="#ED3237"/>
<path fill-rule="evenodd" clip-rule="evenodd" d="M142.648 137.234C119.732 144.833 105.714 162.581 84.8625 210.395C80.7855 219.745 75.5185 232.458 73.1595 238.645C70.7995 244.833 68.5285 249.895 68.1125 249.895C67.6955 249.895 62.4705 247.606 56.5015 244.809C39.1805 236.692 29.0165 233.566 19.6475 233.474C12.2155 233.401 11.3215 233.622 7.04952 236.588C-1.13548 242.273 -2.10848 248.632 3.69052 258.549C9.56952 268.603 25.0675 282.169 34.9355 285.897C41.9145 288.534 51.1695 288.547 56.5815 285.927C61.1855 283.698 69.6485 275.755 71.7545 271.685L73.1575 268.975L91.9025 278.204C131.278 297.588 163.422 309.492 187.008 313.425C205.44 316.498 226.402 314.5 237.798 308.583C246.092 304.276 253.973 289.204 254.885 275.907C255.316 269.608 255.113 268.003 253.706 266.596C249.846 262.735 247.429 265.198 245.586 274.872C242.889 289.026 237.418 297.216 227.445 302.027C204.247 313.218 159.693 300.447 92.6125 263.379C84.9315 259.135 78.5705 255.6 78.4755 255.524C78.1085 255.227 92.1635 221.691 97.9505 209.057C116.182 169.254 134.908 145.939 148.648 145.939C152.256 145.939 158.868 148.817 163.665 152.476C168.272 155.99 175.848 166.083 178.742 172.562C181.235 178.144 183.751 179.713 187.229 177.852C190.276 176.221 189.399 171.125 184.233 160.453C179.405 150.477 172.088 142.449 164.648 138.962C158.595 136.125 148.407 135.325 142.648 137.234ZM62.1475 263.902C58.9435 261.818 40.1815 253.975 31.1455 250.942C25.9215 249.188 19.5115 247.497 16.9015 247.185L12.1545 246.617L13.3045 249.917C15.4985 256.21 22.6225 265.214 29.6425 270.568C44.3895 281.812 54.5765 281.51 61.0525 269.636C63.2905 265.532 63.4415 264.743 62.1475 263.902Z" fill="#ED3237"/>
<path fill-rule="evenodd" clip-rule="evenodd" d="M654.099 0.955635C639.262 3.13963 623.695 12.9716 615.661 25.2326L613.916 27.8976L610.691 25.0666C605.304 20.3366 593.106 13.2206 584.648 9.87264C562.335 1.04264 534.833 -0.370365 507.648 5.91664C503.248 6.93464 498.523 8.25864 497.148 8.85864L494.648 9.95063L497.148 9.42063C498.523 9.12863 504.148 7.93763 509.648 6.77363C522.643 4.02363 544.581 3.80464 557.52 6.29664C578.748 10.3846 599.338 21.2156 610.942 34.3976C616.397 40.5956 618.462 45.2756 618.954 52.5616C619.66 63.0186 613.801 72.5326 601.404 81.0626C599.063 82.6726 597.148 84.2026 597.148 84.4616C597.148 85.8636 603.432 83.0656 608.809 79.2696C628.64 65.2706 632.241 48.0736 618.523 32.8886L614.986 28.9736L617.544 25.6196C626.191 14.2836 642.55 6.94163 659.237 6.90963C666.478 6.89563 666.883 6.77263 668.039 4.23563C670.037 -0.151365 666.797 -0.914365 654.099 0.955635ZM483.125 13.3056C463.339 21.0546 446.905 31.1676 427.404 47.5946C421.22 52.8036 415.91 57.4706 415.604 57.9656C415.288 58.4766 416.472 58.5796 418.346 58.2046C420.446 57.7846 424.601 54.9136 429.794 50.2926C446.626 35.3176 466.943 21.7826 482.338 15.2886L482.604 15.1764C491.691 11.3436 494.007 10.367 493.928 10.1046C493.902 10.0149 493.595 10.0087 493.184 10.0004L493.148 9.99963C492.323 9.98263 487.813 11.4706 483.125 13.3056ZM660.148 25.1706C648.625 29.1136 638.52 36.3356 631.99 45.2946C627.553 51.3836 628.632 51.4546 634.619 45.4666C637.628 42.4576 641.018 39.4996 642.152 38.8926C644.005 37.9006 644.409 38.2306 646.142 42.1476C650.37 51.7066 652.335 74.8116 650.201 89.8946C647.305 110.37 646.794 117.891 647.897 123.821C649.758 133.825 654.607 142.253 664.393 152.489C669.269 157.59 673.148 162.511 673.148 163.596C673.148 165.399 668.352 170.853 663.648 174.399C661.757 175.825 661.796 175.854 664.364 174.939C670.153 172.875 674.965 169.866 677.992 166.419C679.727 164.443 681.148 162.367 681.148 161.807C681.148 161.247 677.148 156.59 672.26 151.46C661.697 140.372 656.691 131.271 655.201 120.455C654.276 113.742 654.542 109.768 657.083 92.3946C658.586 82.1236 658.378 60.2736 656.693 51.4686C655.893 47.2866 654.129 41.6566 652.773 38.9566L650.307 34.0476L654.224 32.4806C660.555 29.9476 671.052 28.6946 677.49 29.7046C682.73 30.5266 683.365 30.4226 684.692 28.5276C687.974 23.8416 686.287 22.8846 674.816 22.9206C669.044 22.9386 664.742 23.5986 660.148 25.1706ZM393.688 205.65C395.607 204.668 397.025 204.258 398.267 204.744C397.101 204.722 395.596 204.999 393.688 205.65ZM654.609 177.576C652.255 179.93 653.094 188.144 656.004 191.242C658.653 194.061 658.719 196.068 656.237 198.314C654.461 199.922 654.436 200.236 655.893 202.776C658.114 206.644 656.873 210.535 652.616 213.047C649.259 215.027 649.148 215.289 649.138 221.244C649.132 225.379 650.003 229.867 651.798 234.94C654.84 243.537 654.572 246.494 650.397 250.365C647.24 253.292 647.768 253.498 652.916 251.347C661.723 247.668 662.923 243.556 658.648 231.706C655.205 222.161 655.284 215.777 658.888 212.435C660.395 211.038 661.897 209.895 662.227 209.895C662.557 209.895 663.339 208.772 663.964 207.399C665.185 204.719 664.229 200.682 662.057 199.339C661.131 198.767 661.176 198.33 662.247 197.492C666.174 194.417 666.279 193.336 663.049 189.288C660.278 185.815 660.004 184.882 660.499 180.645C661.024 176.153 660.925 175.895 658.672 175.895C657.363 175.895 655.533 176.652 654.609 177.576ZM547.961 296.578C548.682 296.867 549.545 296.831 549.877 296.499C550.209 296.167 549.619 295.931 548.565 295.974C547.4 296.022 547.163 296.259 547.961 296.578ZM223.683 348.482C221.261 352.178 222.523 352.609 226.621 349.484C230.79 346.304 230.92 345.895 227.763 345.895C226.301 345.895 224.722 346.896 223.683 348.482ZM249.528 347.347C248.811 349.215 249.858 350.895 251.738 350.895C253.782 350.895 254.743 347.886 253.044 346.809C251.055 345.55 250.165 345.687 249.528 347.347ZM327.923 346.645C327.735 347.058 327.745 352.851 327.945 359.52L328.31 371.645L332.979 371.748C339.31 371.887 340.916 371.245 342.659 367.874C346.798 359.871 341.346 352.071 333.898 355.341C332.359 356.016 332.148 355.492 332.148 351.002C332.148 346.613 331.875 345.895 330.207 345.895C329.139 345.895 328.112 346.232 327.923 346.645ZM365.092 346.645C365.061 347.058 364.948 352.907 364.842 359.644L364.648 371.893L367.648 371.896L370.648 371.899L370.342 358.897L370.037 345.895H367.592C366.248 345.895 365.123 346.232 365.092 346.645ZM206.202 353.326C203.696 355.921 203.207 356.895 204.408 356.895C205.766 356.895 206.113 358.189 206.354 364.145C206.628 370.895 206.81 371.418 209 371.728C210.293 371.911 212.543 371.738 214 371.344L216.648 370.627L213.398 369.732C210.194 368.85 210.148 368.753 210.148 362.866C210.148 356.898 210.15 356.895 213.148 356.895C214.798 356.895 216.148 356.445 216.148 355.895C216.148 355.345 214.828 354.895 213.214 354.895C210.813 354.895 210.223 354.429 209.964 352.326L209.648 349.757L206.202 353.326ZM236.756 353.299C235.085 355.033 234.346 356.461 235.006 356.681C235.688 356.908 236.148 359.412 236.148 362.897C236.148 371.007 236.646 371.895 241.196 371.895C245.425 371.895 247.506 370.227 243.913 369.716C241.874 369.427 241.618 368.771 241.35 363.145C241.059 357.036 241.11 356.895 243.6 356.895C245.002 356.895 246.148 356.445 246.148 355.895C246.148 355.345 245.023 354.895 243.648 354.895C241.84 354.895 241.148 354.358 241.148 352.954C241.148 349.937 239.901 350.035 236.756 353.299ZM177.036 355.371C172.304 357.986 170.94 365.53 174.437 369.744C176.464 372.185 180.214 373.028 183.792 371.847C188.098 370.426 188.066 369.414 183.712 369.323C179.731 369.239 177.148 367.448 177.148 364.773C177.148 363.159 177.937 362.895 182.756 362.895H188.365L187.691 360.145C186.422 354.97 181.64 352.827 177.036 355.371ZM193.486 354.894C191.059 355.872 189.787 358.792 190.725 361.234C191.067 362.125 192.877 363.8 194.747 364.956C198.395 367.211 199.278 369.895 196.371 369.895C195.393 369.895 193.593 369.194 192.371 368.338C190.256 366.857 190.148 366.9 190.148 369.213C190.148 371.135 190.801 371.776 193.265 372.268C197.863 373.188 201.581 371.063 201.949 367.305C202.206 364.672 201.665 363.841 198.199 361.547C192.102 357.513 193.512 355.479 200.398 358.373C201.725 358.931 202.148 358.628 202.148 357.119C202.148 354.282 197.784 353.161 193.486 354.894ZM222.258 355.267C212.502 360.771 218.239 375.33 228.792 371.847C233.098 370.426 233.066 369.414 228.712 369.323C224.731 369.239 222.148 367.448 222.148 364.773C222.148 363.159 222.937 362.895 227.756 362.895H233.365L232.691 360.145C232.32 358.633 231.484 356.862 230.832 356.211C228.895 354.274 224.814 353.825 222.258 355.267ZM250.648 354.631C248.832 354.937 248.648 355.748 248.648 363.432V371.895L251.648 371.897L254.648 371.9L254.325 363.647C254.148 359.109 253.698 355.147 253.325 354.844C252.953 354.541 251.748 354.445 250.648 354.631ZM262.507 355.34C260.358 356.275 259.001 357.811 258.212 360.2C255.997 366.913 259.449 372.368 265.798 372.188C270.696 372.049 272.143 370.344 268.056 369.527C266.286 369.173 264.233 368.381 263.493 367.767C261.637 366.226 261.793 359.393 263.729 357.457C265.343 355.842 266.317 356.056 269.398 358.702C271 360.078 271.148 359.99 271.148 357.657C271.148 353.823 267.958 352.968 262.507 355.34ZM277.398 354.566C275.789 354.901 275.148 355.747 275.148 357.537V360.04L277.789 357.962C279.809 356.374 280.751 356.15 281.789 357.012C284.493 359.256 283.37 361.604 279.278 362.258C274.269 363.059 272.493 365.13 273.749 368.705C274.633 371.224 275.107 371.406 281.186 371.571L287.679 371.748L287.316 364.071C287.116 359.849 286.645 356.066 286.269 355.664C285.32 354.648 280.107 354.003 277.398 354.566ZM305.505 354.887C300.914 356.739 298.598 364.13 301.127 368.856C303.052 372.453 311.553 373.522 314.074 370.484C314.805 369.603 314.133 369.295 311.476 369.295C308.936 369.295 307.345 368.621 306.019 366.984C303.171 363.467 303.678 362.895 309.648 362.895C314.804 362.895 315.148 362.743 315.148 360.468C315.148 359.036 314.067 357.19 312.513 355.968C309.65 353.715 308.751 353.577 305.505 354.887ZM351.036 355.371C346.304 357.986 344.94 365.53 348.437 369.744C350.464 372.185 354.214 373.028 357.792 371.847C362.098 370.426 362.066 369.414 357.712 369.323C353.731 369.239 351.148 367.448 351.148 364.773C351.148 363.159 351.937 362.895 356.756 362.895H362.365L361.691 360.145C360.422 354.97 355.64 352.827 351.036 355.371ZM377.979 355.425C372.149 358.59 372.356 368.4 378.318 371.483C380.702 372.716 381.932 372.791 384.709 371.875C389.157 370.407 389.078 369.416 384.505 369.314C382.184 369.263 380.377 368.561 379.508 367.373C376.925 363.841 377.8 362.895 383.648 362.895C388.522 362.895 389.148 362.662 389.148 360.85C389.148 358.306 384.857 353.881 382.443 353.935C381.456 353.957 379.447 354.627 377.979 355.425ZM412.398 354.566C410.789 354.901 410.148 355.747 410.148 357.537V360.04L412.789 357.962C414.809 356.374 415.751 356.15 416.789 357.012C419.408 359.186 418.375 361.596 414.559 362.216C410.07 362.944 408.148 364.497 408.148 367.395C408.148 370.793 410.019 371.707 416.967 371.701C422.136 371.696 423.182 371.426 422.717 370.213C422.404 369.398 422.141 366.181 422.133 363.063C422.124 359.946 421.764 356.839 421.333 356.16C420.427 354.733 415.674 353.885 412.398 354.566ZM392.148 356.895C392.148 359.004 393.603 359.586 394.648 357.895C394.988 357.345 396.188 356.895 397.314 356.895C399.799 356.895 399.491 357.892 394.68 365.412C392.738 368.449 391.148 371.15 391.148 371.414C391.148 371.679 394.523 371.895 398.648 371.895C405.981 371.895 406.148 371.839 406.148 369.395C406.148 366.489 405.475 366.289 403.059 368.475C402.099 369.345 400.4 369.907 399.283 369.725C397.412 369.421 397.599 368.83 401.685 362.145L406.118 354.895H399.133C392.815 354.895 392.148 355.086 392.148 356.895ZM181.948 357.095C184.082 359.229 183.293 360.895 180.148 360.895C178.353 360.895 177.148 360.373 177.148 359.595C177.148 358.265 179.07 355.895 180.148 355.895C180.478 355.895 181.288 356.435 181.948 357.095ZM226.948 357.095C229.082 359.229 228.293 360.895 225.148 360.895C223.353 360.895 222.148 360.373 222.148 359.595C222.148 358.265 224.07 355.895 225.148 355.895C225.478 355.895 226.288 356.435 226.948 357.095ZM309.968 358.723C310.236 360.546 309.799 360.895 307.249 360.895C304.776 360.895 304.331 360.569 304.856 359.145C306.244 355.385 309.438 355.122 309.968 358.723ZM355.948 357.095C358.082 359.229 357.293 360.895 354.148 360.895C352.353 360.895 351.148 360.373 351.148 359.595C351.148 358.265 353.07 355.895 354.148 355.895C354.478 355.895 355.288 356.435 355.948 357.095ZM382.948 357.095C385.082 359.229 384.293 360.895 381.148 360.895C377.837 360.895 377.676 360.645 379.183 357.829C380.381 355.592 381.271 355.418 382.948 357.095ZM337.657 358.278C339.894 359.914 340.233 365.883 338.226 368.302C337.498 369.178 335.833 369.895 334.526 369.895C332.266 369.895 332.148 369.572 332.148 363.395C332.148 357.791 332.397 356.895 333.957 356.895C334.952 356.895 336.617 357.517 337.657 358.278ZM283.148 366.336C283.148 367.679 282.739 369.03 282.238 369.339C280.713 370.282 278.148 368.787 278.148 366.955C278.148 364.742 279.024 363.895 281.315 363.895C282.592 363.895 283.148 364.636 283.148 366.336ZM417.964 366.568C417.583 369.79 416.225 370.403 413.645 368.517C412.012 367.322 411.924 366.87 413.058 365.503C413.792 364.619 415.268 363.895 416.337 363.895C417.856 363.895 418.212 364.479 417.964 366.568Z" fill="black"/>
<path fill-rule="evenodd" clip-rule="evenodd" d="M393.688 205.65C391.21 206.917 389.712 206.976 384.489 206.014C374.266 204.13 366.854 206.632 352.363 216.856C332.127 231.134 314.606 252.987 312.584 266.47C311.361 274.628 316.07 280.135 322.818 278.442C327.964 277.15 341.587 267.306 362.509 249.761L366.37 246.523L363.807 251.582C360.259 258.583 353.51 278.398 350.587 290.395C346.097 308.824 347.848 318.202 356.829 323.82C362.725 327.508 370.651 329.289 377.178 328.391C391.482 326.424 415.903 308.481 431.177 288.718L437.92 279.994L431.375 273.908L428.827 277.249C418.447 290.858 399.617 306.975 386.368 313.593C380.381 316.583 377.715 317.307 371.368 317.667C364.563 318.053 363.322 317.847 360.898 315.927C358.554 314.071 358.148 313.011 358.148 308.739C358.148 298.462 366.748 271.937 376.07 253.46C382.446 240.824 396.322 218.8 397.305 219.756C399.251 216.619 401.404 212.214 401.689 208.987C400.514 206.531 399.473 205.215 398.267 204.744C397.101 204.722 395.596 204.999 393.688 205.65ZM338.036 258.407C350.139 249.481 377.909 220.935 376.58 218.785C375.668 217.309 368.88 217.827 365.148 219.657C354.469 224.894 330.329 254.38 331.324 260.971C331.625 262.963 332.11 262.777 338.036 258.407Z" fill="#ED3237"/>
<path fill-rule="evenodd" clip-rule="evenodd" d="M588.148 30.7876C585.814 31.4346 585.574 32.1156 584.539 41.0136C583.93 46.2576 582.869 52.8906 582.182 55.7546C581.102 60.2526 580.663 60.8756 578.953 60.3326C577.865 59.9876 575.409 59.9986 573.497 60.3566L570.02 61.0096L574.305 64.8116L578.589 68.6136L574.628 77.5046C561.675 106.576 542.894 128.242 512.525 149.15C493.295 162.388 486.994 167.971 481.246 176.865C475.062 186.433 473.639 191.624 473.702 204.395C473.748 213.872 474.126 216.336 476.425 222.193C482.152 236.778 494.637 250.986 511.148 261.708C515.823 264.744 519.783 267.325 519.947 267.444C520.112 267.563 518.01 269.956 515.277 272.762C509.698 278.49 505.571 286.373 503.846 294.599L502.687 300.124L496.552 299.495C488.466 298.667 476.347 295.447 467.566 291.794C440.499 280.535 417.8 253.375 404.68 216.552C403.524 213.307 402.569 210.827 401.689 208.987C401.404 212.214 399.251 216.619 397.305 219.756C397.667 220.108 399.181 223.32 400.67 226.895C407.365 242.966 416.472 257.81 425.853 267.943L431.375 273.908L437.92 279.994L443.284 284.012C456.233 293.713 476.984 301.179 494.799 302.548L503.148 303.19V309.622V316.054L506.398 315.357L506.455 315.344C508.588 314.887 509.731 314.642 510.284 313.935C510.923 313.119 510.775 311.686 510.457 308.6L510.45 308.532L509.898 303.197L516.773 302.528C524.937 301.734 546.421 297.835 545.839 297.253C545.615 297.029 541.431 297.503 536.54 298.305C531.649 299.108 523.652 300.064 518.768 300.43L509.891 301.096L510.609 296.245C511.938 287.265 515.571 279.083 521.627 271.432C523.025 269.665 523.504 269.599 526.414 270.774C545.667 278.542 560.283 281.843 576.029 281.977L585.648 282.059L580.148 284.624C577.123 286.035 571.498 288.458 567.648 290.008C563.798 291.558 561.323 292.825 562.148 292.824C562.973 292.824 568.631 290.903 574.721 288.556L585.794 284.289L585.352 291.934C584.903 299.685 586.543 315.764 587.904 316.962C588.313 317.322 590.053 317.232 591.77 316.761L594.892 315.904L593.951 311.15C593.434 308.535 592.957 301.421 592.891 295.342C592.792 286.281 593.191 282.982 595.1 277.043C597.765 268.755 604.248 260.587 610.103 258.141C612.077 257.316 619.528 256.29 627.13 255.797C645.048 254.635 651.086 252.816 634.648 253.532C620.066 254.167 614.463 255.056 606.679 257.969C599.169 260.779 591.288 268.343 588.637 275.285L586.777 280.154L577.798 279.476C561.662 278.258 547.934 274.792 533.648 268.328L527.648 265.614L532.702 263.277C536.329 261.6 541.552 260.533 551.202 259.498C567.391 257.761 577.029 254.95 581.789 250.578C586.538 246.216 587.264 242.204 584.99 232.895C582.488 222.658 583.239 217.764 587.778 214.702C591.959 211.883 593.021 208.481 590.884 204.758C589.548 202.429 589.518 201.833 590.688 200.861C593.378 198.629 593.389 195.97 590.721 192.8C587.957 189.515 587.375 185.727 589.398 184.19C590.086 183.667 592.819 182.437 595.473 181.456C600.128 179.735 608.148 173.252 608.148 171.21C608.148 170.663 606.327 169.614 604.101 168.879C597.867 166.822 587.759 156.96 584.165 149.43C578.293 137.128 578.451 125.562 584.776 104.55C589.28 89.5866 590.129 80.0886 587.684 72.0146C586.001 66.4546 586.01 66.0706 588.001 59.3376C591.442 47.6936 593.524 29.7116 591.398 29.9946C590.985 30.0496 589.523 30.4056 588.148 30.7876ZM577.148 108.395C579.579 100.129 581.505 91.2206 581.85 86.6446C582.176 82.3216 582.039 78.9076 581.541 78.9226C581.05 78.9386 578.286 83.3266 575.4 88.6726C562.448 112.665 544.508 131.326 515.382 151.105C502.558 159.814 490.849 170.715 486.435 178.053C471.476 202.927 484.04 236.332 516.699 258.516L525.053 264.191L533.208 261.496C538.597 259.715 545.312 258.464 553.005 257.807C559.408 257.261 566.484 256.15 568.728 255.337C577.523 252.152 580.886 244.781 577.754 235.554C576.871 232.953 576.148 228.398 576.148 225.431C576.148 219.93 577.162 218.028 581.273 215.828C585.319 213.662 585.594 207.197 581.747 204.673C581.033 204.205 581.437 203.395 582.898 202.366C585.703 200.391 585.794 196.789 583.099 194.351C581.617 193.01 581.134 191.517 581.349 188.952C581.628 185.646 582.014 185.276 587.079 183.461C590.346 182.29 594.327 179.773 597.07 177.144L601.633 172.774L595.557 169.858C584.863 164.726 576.074 153.406 573.152 141.005C571.329 133.27 572.398 124.541 577.148 108.395Z" fill="black"/>
</g>
</svg>
